# xmcd
#
# Track frame offsets:
#	150
#	16974
#	34205
#	53887
#	66221
#	80531
#	92406
#	111013
#	123751
#	137803
#	154713
#	170365
#	185509
#	204869
#	219326
#	239457
#	256188
#	274662
#
# Disc length: 3887 seconds
#
# Revision: 0
# Processed by: cddbd v1.5.2PL0 Copyright (c) Steve Scherf et al.
# Submitted via: audiograbber 1.83.01
#
DISCID=ed0f2d12
DTITLE=Various Artist - My Country Vol.4-CD2
DYEAR=2013
DGENRE=Country
TTITLE0=Dwight Yoakam - Take hold of my hand
TTITLE1=Josh Turner - Would you go with me
TTITLE2=Kenny Chesney - The boys of fall
TTITLE3=Easton Corbin - All over the road
TTITLE4=Kacey Musgraves - Blowin' smoke
TTITLE5=Chris Young - I can take it from there
TTITLE6=Carrie Underwood - See you again
TTITLE7=Jake Owen - Barefoot blue jean night
TTITLE8=Jana Kramer - I hope it rains
TTITLE9=The Band Perry - If I die young
TTITLE10=Rodney Atkins - Take a back road
TTITLE11=Ashley Monroe - Weed instead of roses
TTITLE12=Sara Evans - A little bit stronger
TTITLE13=Miranda Lambert - Gunpowder and Lead
TTITLE14=Gloriana - Can't shake you
TTITLE15=Trace Adkins - Ladies love country
TTITLE16=Trisha Yearwood - She's in love with the boy
TTITLE17=Leann Rimes - I need you
EXTD=
EXTT0=
EXTT1=
EXTT2=
EXTT3=
EXTT4=
EXTT5=
EXTT6=
EXTT7=
EXTT8=
EXTT9=
EXTT10=
EXTT11=
EXTT12=
EXTT13=
EXTT14=
EXTT15=
EXTT16=
EXTT17=
PLAYORDER=
